<svg xmlns="http://www.w3.org/2000/svg" width="170" height="158" fill="none"><path fill="url(#a)" d="M106.048 2.368c.341-.939 1.323-.939 2.944 0 1.621.853 3.328 2.133 5.12 3.84a35.909 35.909 0 0 1 4.736 5.504c1.451 1.963 2.176 3.584 2.176 4.864-2.475 12.117-4.949 22.955-7.424 32.512a2821.773 2821.773 0 0 1-6.784 26.624 1217.128 1217.128 0 0 1-3.072 12.032 486.575 486.575 0 0 0-2.944 11.904c-.939 3.925-1.877 7.936-2.816 12.032a354.22 354.22 0 0 0-2.432 12.928 908.558 908.558 0 0 0 4.224-10.624l4.352-10.752v.128l3.968-9.728a1064.1 1064.1 0 0 1 19.84-45.952 355.352 355.352 0 0 1 23.936-43.264c.427-.512 1.024-.683 1.792-.512.853.17 1.749.555 2.688 1.152 1.024.512 2.005 1.237 2.944 2.176.939.853 1.749 1.75 2.432 2.688 1.963 1.792 3.669 3.67 5.12 5.632 1.451 1.877 2.091 3.2 1.92 3.968-.939 1.28-2.133 3.499-3.584 6.656-1.451 3.157-2.987 6.955-4.608 11.392-1.621 4.352-3.328 9.259-5.12 14.72a332.8 332.8 0 0 0-5.12 16.896 371.705 371.705 0 0 0-4.48 18.048 244.805 244.805 0 0 0-3.328 17.664c-.853 5.717-1.408 11.093-1.664 16.128-.171 5.035.043 9.515.64 13.44.427 2.901 1.109 5.291 2.048 7.168 1.024 1.877 2.347 3.115 3.968 3.712 2.389.853 4.693 1.28 6.912 1.28 1.536 0 3.029-.171 4.48-.512a27.306 27.306 0 0 0 4.48-1.408c1.365 0 2.219.555 2.56 1.664.341 1.195.341 2.517 0 3.968a11.157 11.157 0 0 1-1.92 4.224c-.853 1.28-1.835 2.048-2.944 2.304a48.41 48.41 0 0 1-3.84.384 74.774 74.774 0 0 1-4.608.128c-1.536 0-3.115-.128-4.736-.384a27.373 27.373 0 0 1-4.992-1.024c-4.864-1.451-8.747-4.267-11.648-8.448-2.816-4.181-4.693-9.344-5.632-15.488-.683-4.011-1.024-8.405-1.024-13.184.085-4.779.384-9.771.896-14.976a288.4 288.4 0 0 1 2.304-16 353.93 353.93 0 0 1 3.456-16.512 875.412 875.412 0 0 0-15.232 33.152 1477.618 1477.618 0 0 0-13.568 32.64c-.683 1.536-1.621 3.115-2.816 4.736-1.195 1.621-2.56 2.987-4.096 4.096a11.205 11.205 0 0 1-5.12 2.048c-1.792.341-3.627-.043-5.504-1.152l.128.128c-3.328-1.707-5.376-5.291-6.144-10.752-.597-3.84-.64-8.576-.128-14.208.597-5.632 1.536-11.819 2.816-18.56 1.28-6.827 2.816-13.995 4.608-21.504 1.877-7.595 3.797-15.19 5.76-22.784-2.475 5.035-4.95 9.984-7.424 14.848a404.505 404.505 0 0 1-7.808 14.592 462.11 462.11 0 0 1-6.144 11.008c-2.219 3.925-4.395 7.509-6.528 10.752a67.834 67.834 0 0 0-2.176 3.2 118.063 118.063 0 0 0-2.432 3.968 412.81 412.81 0 0 1-6.784 10.368c-2.475 3.584-5.12 6.869-7.936 9.856-2.816 3.072-5.845 5.589-9.088 7.552-3.157 2.048-6.485 3.029-9.984 2.944-3.755-.085-6.997-1.195-9.728-3.328-2.645-2.133-4.95-4.821-6.912-8.064-1.877-3.243-3.37-6.784-4.48-10.624-1.195-3.925-2.048-7.68-2.56-11.264a85.097 85.097 0 0 1-.64-4.224c-.17-1.451-.256-2.731-.256-3.84-.17-4.096.043-8.704.64-13.824.597-5.205 1.536-10.624 2.816-16.256 1.28-5.632 2.901-11.35 4.864-17.152a171.412 171.412 0 0 1 6.656-16.768c2.56-5.461 5.376-10.581 8.448-15.36 3.157-4.779 6.528-8.917 10.112-12.416 3.584-3.499 7.381-6.23 11.392-8.192 4.096-2.048 8.363-3.03 12.8-2.944 2.645.17 5.077 1.024 7.296 2.56a23.032 23.032 0 0 1 6.016 5.504 32.556 32.556 0 0 1 4.224 7.296c1.195 2.56 1.963 5.035 2.304 7.424a24.44 24.44 0 0 1 .256 3.456c.085 1.11.043 2.048-.128 2.816l-.128.128c-.597 2.73-1.792 5.248-3.584 7.552-1.792 2.219-3.627 3.84-5.504 4.864-1.877 1.024-3.499 1.195-4.864.512-1.365-.683-1.92-2.603-1.664-5.76.17-1.28.299-3.243.384-5.888.17-2.645.043-5.333-.384-8.064-.256-1.707-.768-3.243-1.536-4.608-.683-1.45-1.621-2.261-2.816-2.432-4.267-.256-8.49 1.152-12.672 4.224-4.096 2.987-7.979 7.04-11.648 12.16-3.67 5.035-7.04 10.837-10.112 17.408a176.131 176.131 0 0 0-7.936 19.712c-2.219 6.656-3.925 13.099-5.12 19.328-1.11 6.144-1.579 11.435-1.408 15.872v1.152c.17 1.195.299 2.347.384 3.456.17 1.024.341 2.133.512 3.328.17.768.341 1.664.512 2.688.17 1.024.427 2.005.768 2.944a36.83 36.83 0 0 0 1.792 4.224 18.585 18.585 0 0 0 2.432 3.712c.939 1.024 2.048 1.963 3.328 2.816 1.365.768 2.901 1.323 4.608 1.664 2.39-.085 4.992-1.237 7.808-3.456s5.76-5.248 8.832-9.088c3.157-3.925 6.4-8.533 9.728-13.824a409.818 409.818 0 0 0 10.112-17.024 649.759 649.759 0 0 0 10.496-19.2A4465.311 4465.311 0 0 0 81.6 51.136c4.096-7.85 8.064-15.53 11.904-23.04 3.925-7.595 7.765-14.592 11.52-20.992.171-.768.299-1.493.384-2.176.171-.768.341-1.493.512-2.176l.128-.384Z"/><defs><linearGradient id="a" x1="8" x2="158" y1="40" y2="168" gradientUnits="userSpaceOnUse"><stop stop-color="#A093C7"/><stop offset="1" stop-color="#84A0C6"/></linearGradient></defs></svg>